<?xml version="1.0" standalone="no"?>
<!DOCTYPE svg PUBLIC "-//W3C//DTD SVG 20010904//EN"
 "http://www.w3.org/TR/2001/REC-SVG-20010904/DTD/svg10.dtd">
<svg version="1.0" xmlns="http://www.w3.org/2000/svg"
 width="700.000000pt" height="700.000000pt" viewBox="0 0 700.000000 700.000000"
 preserveAspectRatio="xMidYMid meet">
<metadata>
Created by potrace 1.14, written by Peter Selinger 2001-2017
</metadata>
<g transform="translate(0.000000,700.000000) scale(0.100000,-0.100000)"
fill="#000000" stroke="none">
<path d="M765 6994 c-11 -2 -45 -9 -75 -15 -232 -45 -439 -197 -577 -424 -26
-42 -55 -113 -81 -195 l-27 -85 -2 -2755 -2 -2755 24 -95 c82 -315 296 -538
612 -637 l88 -28 2745 -2 c2999 -3 2805 -6 2966 56 114 44 196 96 284 178 127
119 224 284 256 434 2 13 9 44 14 69 10 51 9 5513 -2 5545 -3 11 -11 38 -16
60 -16 70 -73 196 -123 269 -111 167 -310 310 -494 355 -27 7 -59 16 -70 19
-21 7 -5486 13 -5520 6z m5455 -444 c173 -41 318 -197 337 -363 8 -73 8 -5310
-1 -5377 -8 -66 -63 -182 -109 -231 -68 -72 -164 -122 -262 -136 -55 -8 -5307
-8 -5373 1 -165 20 -324 165 -363 331 -8 37 -11 731 -11 2735 l-1 2685 21 58
c24 68 60 131 95 167 34 35 76 70 84 70 3 0 14 6 22 13 27 23 106 48 173 55
35 4 1249 7 2698 6 2121 -1 2646 -3 2690 -14z"/>
<path d="M2755 5011 c-54 -24 -1402 -1371 -1423 -1421 -22 -52 -24 -109 -6
-162 14 -42 91 -122 702 -734 478 -478 699 -693 727 -705 182 -83 374 116 284
294 -14 27 -224 244 -610 629 l-588 588 594 593 c422 423 598 605 609 632 47
112 -7 244 -121 292 -45 18 -121 16 -168 -6z"/>
<path d="M4066 5010 c-56 -28 -86 -58 -108 -109 -25 -54 -25 -128 -1 -178 11
-24 233 -253 610 -630 l593 -593 -589 -588 c-388 -388 -597 -604 -611 -632
-20 -40 -27 -97 -16 -147 13 -61 68 -122 136 -151 42 -17 132 -12 177 11 46
24 1387 1370 1408 1412 24 52 27 118 7 172 -15 39 -117 145 -702 731 -476 477
-697 691 -725 703 -52 24 -129 23 -179 -1z"/>
</g>
</svg>
